HIERARCHY
ROOT reference
{
  OFFSET 0 0 0
  CHANNELS 6 Xposition Yposition Zposition Zrotation Xrotation Yrotation
  JOINT Hips
  {
    OFFSET 44.6805 85.9651 -20.1189
    CHANNELS 3 Zrotation Xrotation Yrotation
    JOINT RightUpLeg
    {
      OFFSET -9.20028 -1.61905 0.0313892
      CHANNELS 3 Zrotation Xrotation Yrotation
      JOINT RightLeg
      {
        OFFSET 0.0920446 -41.8676 0.113709
        CHANNELS 3 Zrotation Xrotation Yrotation
        JOINT RightFoot
        {
          OFFSET -0.78009 -42.2818 -0.985537
          CHANNELS 3 Zrotation Xrotation Yrotation
          End Site
          {
            OFFSET 0 -7.69 17.5
          }
        }
      }
    }
    JOINT LeftUpLeg
    {
      OFFSET 9.33559 -1.63058 -0.0435578
      CHANNELS 3 Zrotation Xrotation Yrotation
      JOINT LeftLeg
      {
        OFFSET 0.124601 -41.8685 -0.0153308
        CHANNELS 3 Zrotation Xrotation Yrotation
        JOINT LeftFoot
        {
          OFFSET -0.885525 -42.178 -0.480441
          CHANNELS 3 Zrotation Xrotation Yrotation
          End Site
          {
            OFFSET 0 -7.69 17.5
          }
        }
      }
    }
    JOINT Spine
    {
      OFFSET -0.030151 14.2977 0.0632059
      CHANNELS 3 Zrotation Xrotation Yrotation
      JOINT Spine1
      {
        OFFSET -0.0449239 9.71163 -4.69081e-05
        CHANNELS 3 Zrotation Xrotation Yrotation
        JOINT Spine2
        {
          OFFSET 0.0275009 10.1133 -0.0283136
          CHANNELS 3 Zrotation Xrotation Yrotation
          JOINT Spine3
          {
            OFFSET 0.0288761 9.7229 -0.000806902
            CHANNELS 3 Zrotation Xrotation Yrotation
            JOINT Neck
            {
              OFFSET -0.0518603 10.2949 0.241895
              CHANNELS 3 Zrotation Xrotation Yrotation
              JOINT Head
              {
                OFFSET -0.275401 9.55953 0.0709142
                CHANNELS 3 Zrotation Xrotation Yrotation
                End Site
                {
                  OFFSET 0 15.95 0
                }
              }
            }
            JOINT RightShoulder
            {
              OFFSET -3.17286 6.95881 0.00543218
              CHANNELS 3 Zrotation Xrotation Yrotation
              JOINT RightArm
              {
                OFFSET -12.7612 0.039846 0.0411956
                CHANNELS 3 Zrotation Xrotation Yrotation
                JOINT RightForeArm
                {
                  OFFSET -26.5517 0.0729849 0.08211
                  CHANNELS 3 Zrotation Xrotation Yrotation
                  JOINT RightHand
                  {
                    OFFSET -26.0042 -0.0197864 0.0403594
                    CHANNELS 3 Zrotation Xrotation Yrotation
                    JOINT RightHandThumb1
                    {
                      OFFSET -2.48905 0.190105 3.12053
                      CHANNELS 3 Zrotation Xrotation Yrotation
                      JOINT RightHandThumb2
                      {
                        OFFSET -3.68274 0 0
                        CHANNELS 3 Zrotation Xrotation Yrotation
                        JOINT RightHandThumb3
                        {
                          OFFSET -2.55832 0 0
                          CHANNELS 3 Zrotation Xrotation Yrotation
                          End Site
                          {
                            OFFSET -2.194 0 0
                          }
                        }
                      }
                    }
                    JOINT RightInHandIndex
                    {
                      OFFSET -3.22368 0.508421 1.97842
                      CHANNELS 3 Zrotation Xrotation Yrotation
                      JOINT RightHandIndex1
                      {
                        OFFSET -5.21684 -0.091368 0.999158
                        CHANNELS 3 Zrotation Xrotation Yrotation
                        JOINT RightHandIndex2
                        {
                          OFFSET -3.61937 0 0
                          CHANNELS 3 Zrotation Xrotation Yrotation
                          JOINT RightHandIndex3
                          {
                            OFFSET -2.0521 0 0
                            CHANNELS 3 Zrotation Xrotation Yrotation
                            End Site
                            {
                              OFFSET -1.805 0 0
                            }
                          }
                        }
                      }
                    }
                    JOINT RightInHandMiddle
                    {
                      OFFSET -3.38211 0.517263 0.756737
                      CHANNELS 3 Zrotation Xrotation Yrotation
                      JOINT RightHandMiddle1
                      {
                        OFFSET -5.17411 -0.084 0.313895
                        CHANNELS 3 Zrotation Xrotation Yrotation
                        JOINT RightHandMiddle2
                        {
                          OFFSET -3.94947 0 0
                          CHANNELS 3 Zrotation Xrotation Yrotation
                          JOINT RightHandMiddle3
                          {
                            OFFSET -2.47579 0 0
                            CHANNELS 3 Zrotation Xrotation Yrotation
                            End Site
                            {
                              OFFSET -1.975 0 0
                            }
                          }
                        }
                      }
                    }
                    JOINT RightInHandRing
                    {
                      OFFSET -3.36516 0.537895 -0.128947
                      CHANNELS 3 Zrotation Xrotation Yrotation
                      JOINT RightHandRing1
                      {
                        OFFSET -4.63474 -0.022105 -0.478947
                        CHANNELS 3 Zrotation Xrotation Yrotation
                        JOINT RightHandRing2
                        {
                          OFFSET -3.44238 0 0
                          CHANNELS 3 Zrotation Xrotation Yrotation
                          JOINT RightHandRing3
                          {
                            OFFSET -2.3881 0 0
                            CHANNELS 3 Zrotation Xrotation Yrotation
                            End Site
                            {
                              OFFSET -1.857 0 0
                            }
                          }
                        }
                      }
                    }
                    JOINT RightInHandPinky
                    {
                      OFFSET -3.16105 0.469368 -1.20179
                      CHANNELS 3 Zrotation Xrotation Yrotation
                      JOINT RightHandPinky1
                      {
                        OFFSET -4.14105 -0.022105 -1.09053
                        CHANNELS 3 Zrotation Xrotation Yrotation
                        JOINT RightHandPinky2
                        {
                          OFFSET -2.75653 0 0
                          CHANNELS 3 Zrotation Xrotation Yrotation
                          JOINT RightHandPinky3
                          {
                            OFFSET -1.74189 0 0
                            CHANNELS 3 Zrotation Xrotation Yrotation
                            End Site
                            {
                              OFFSET -1.645 0 0
                            }
                          }
                        }
                      }
                    }
                  }
                }
              }
            }
            JOINT LeftShoulder
            {
              OFFSET 3.22572 6.89245 -0.0537601
              CHANNELS 3 Zrotation Xrotation Yrotation
              JOINT LeftArm
              {
                OFFSET 12.8183 -0.0506887 -0.111983
                CHANNELS 3 Zrotation Xrotation Yrotation
                JOINT LeftForeArm
                {
                  OFFSET 26.4786 -0.0502099 0.0159937
                  CHANNELS 3 Zrotation Xrotation Yrotation
                  JOINT LeftHand
                  {
                    OFFSET 25.8931 -0.161185 0.0946899
                    CHANNELS 3 Zrotation Xrotation Yrotation
                    JOINT LeftHandThumb1
                    {
                      OFFSET 2.48905 0.190105 3.12053
                      CHANNELS 3 Zrotation Xrotation Yrotation
                      JOINT LeftHandThumb2
                      {
                        OFFSET 3.68274 0 0
                        CHANNELS 3 Zrotation Xrotation Yrotation
                        JOINT LeftHandThumb3
                        {
                          OFFSET 2.55832 0 0
                          CHANNELS 3 Zrotation Xrotation Yrotation
                          End Site
                          {
                            OFFSET 2.194 0 0
                          }
                        }
                      }
                    }
                    JOINT LeftInHandIndex
                    {
                      OFFSET 3.22368 0.508421 1.97842
                      CHANNELS 3 Zrotation Xrotation Yrotation
                      JOINT LeftHandIndex1
                      {
                        OFFSET 5.21684 -0.091368 0.999158
                        CHANNELS 3 Zrotation Xrotation Yrotation
                        JOINT LeftHandIndex2
                        {
                          OFFSET 3.61937 0 0
                          CHANNELS 3 Zrotation Xrotation Yrotation
                          JOINT LeftHandIndex3
                          {
                            OFFSET 2.0521 0 0
                            CHANNELS 3 Zrotation Xrotation Yrotation
                            End Site
                            {
                              OFFSET 1.805 0 0
                            }
                          }
                        }
                      }
                    }
                    JOINT LeftInHandMiddle
                    {
                      OFFSET 3.38211 0.517263 0.756737
                      CHANNELS 3 Zrotation Xrotation Yrotation
                      JOINT LeftHandMiddle1
                      {
                        OFFSET 5.17411 -0.084 0.313895
                        CHANNELS 3 Zrotation Xrotation Yrotation
                        JOINT LeftHandMiddle2
                        {
                          OFFSET 3.94947 0 0
                          CHANNELS 3 Zrotation Xrotation Yrotation
                          JOINT LeftHandMiddle3
                          {
                            OFFSET 2.47579 0 0
                            CHANNELS 3 Zrotation Xrotation Yrotation
                            End Site
                            {
                              OFFSET 1.975 0 0
                            }
                          }
                        }
                      }
                    }
                    JOINT LeftInHandRing
                    {
                      OFFSET 3.36516 0.537895 -0.128947
                      CHANNELS 3 Zrotation Xrotation Yrotation
                      JOINT LeftHandRing1
                      {
                        OFFSET 4.63474 -0.022105 -0.478947
                        CHANNELS 3 Zrotation Xrotation Yrotation
                        JOINT LeftHandRing2
                        {
                          OFFSET 3.44238 0 0
                          CHANNELS 3 Zrotation Xrotation Yrotation
                          JOINT LeftHandRing3
                          {
                            OFFSET 2.3881 0 0
                            CHANNELS 3 Zrotation Xrotation Yrotation
                            End Site
                            {
                              OFFSET 1.857 0 0
                            }
                          }
                        }
                      }
                    }
                    JOINT LeftInHandPinky
                    {
                      OFFSET 3.16105 0.469368 -1.20179
                      CHANNELS 3 Zrotation Xrotation Yrotation
                      JOINT LeftHandPinky1
                      {
                        OFFSET 4.14105 -0.022105 -1.09053
                        CHANNELS 3 Zrotation Xrotation Yrotation
                        JOINT LeftHandPinky2
                        {
                          OFFSET 2.75653 0 0
                          CHANNELS 3 Zrotation Xrotation Yrotation
                          JOINT LeftHandPinky3
                          {
                            OFFSET 1.74189 0 0
                            CHANNELS 3 Zrotation Xrotation Yrotation
                            End Site
                            {
                              OFFSET 1.645 0 0
                            }
                          }
                        }
                      }
                    }
                  }
                }
              }
            }
          }
        }
      }
    }
  }
}
MOTION
Frames:	4
Frame Time:	0.00833333
0 0 0 0 0 -0 18.8434 -22.2513 -170.207 36.4433 -26.233 59.424 -14.2995 16.1919 14.525 4.85428 -0.615494 90.1874 35.4156 -14.7857 28.5878 5.29058 24.6482 14.1729 -50.0439 18.2704 135.085 -13.0918 8.42114 0.532147 -3.26635 2.11329 -0.358277 -5.3273 3.39586 -0.787596 -1.22438 -2.93223 0.587381 9.04572 -64.945 110.361 -19.4624 15.5333 36.8012 3.81007 -1.19775 3.03663 67.9057 -6.13372 32.6384 16.2938 -78.5857 79.5713 -4.00776 -20.5203 9.06315 28.184 10.7294 19.1592 1.17968e-14 -6.36111e-15 -10 6.17883e-15 -1.59028e-15 -10 -3.18055e-15 3.18055e-15 -3.18055e-15 19.9818 0.871897 2.3964 24 2.38542e-15 2.22639e-14 20 7.95139e-16 2.8625e-14 -3.18055e-15 3.18055e-15 -3.18055e-15 20 -3.18055e-15 -6.36111e-15 24 -6.36111e-15 1.90833e-14 20 3.97569e-15 2.54444e-14 -3.18055e-15 3.18055e-15 -3.18055e-15 19.9748 -1.02565 -2.81938 24 7.95139e-16 9.54166e-15 20 7.95139e-15 2.54444e-14 -3.18055e-15 3.18055e-15 -3.18055e-15 19.7815 -3.00948 -8.30515 24 1.59028e-15 1.90833e-14 20 -3.97569e-16 3.81667e-14 -16.2306 -25.053 -18.1086 -3.54522 39.3002 -113.748 -46.3991 13.1396 -49.2764 91.4387 60.8739 -15.9761 -28.184 10.7294 -19.1592 4.56894e-16 1.98785e-15 10 -3.50511e-16 1.98785e-15 10 -1.59028e-15 -4.77083e-15 -0 -19.9818 0.871897 -2.3964 -24 -3.18055e-15 3.18055e-15 -20 0 6.36111e-15 -1.59028e-15 -4.77083e-15 -0 -20 1.19271e-15 6.36111e-15 -24 3.18055e-15 1.90833e-14 -20 -3.18055e-15 -3.18055e-15 -1.59028e-15 -4.77083e-15 -0 -19.9748 -1.02565 2.81938 -24 -1.27222e-14 1.59028e-14 -20 9.54166e-15 1.27222e-14 -1.59028e-15 -4.77083e-15 -0 -19.7815 -3.00948 8.30515 -24 -6.36111e-15 2.8625e-14 -20 -6.36111e-15 9.54166e-15 
0 0 0 0 0 -0 18.7829 -22.2499 -170.182 36.3971 -26.213 59.3623 -14.3337 16.1921 14.5587 4.8814 -0.614065 90.1724 35.3948 -14.724 28.4377 5.15499 24.5792 14.3744 -49.9765 18.2789 135.053 -13.1305 8.41582 0.539696 -3.27602 2.11329 -0.358156 -5.34254 3.39497 -0.78861 -1.22486 -2.93117 0.589544 8.82267 -64.9023 110.162 -19.4932 15.5218 36.8217 3.83332 -1.22106 3.08199 67.9114 -6.1485 32.5949 16.5746 -78.5901 79.8303 -3.98479 -20.5625 9.07801 28.184 10.7294 19.1592 -3.22962e-15 0 -10 -8.00641e-15 9.54166e-15 -10 -3.53113e-31 -6.36111e-15 -3.18055e-15 19.9818 0.871897 2.3964 24 -3.18055e-15 -1.27222e-14 20 -5.56597e-15 -3.18055e-15 -3.53113e-31 -6.36111e-15 -3.18055e-15 20 0 3.18055e-15 24 0 -9.54166e-15 20 -1.98785e-15 -9.54166e-15 -3.53113e-31 -6.36111e-15 -3.18055e-15 19.9748 -1.02565 -2.81938 24 -3.18055e-15 -0 20 -3.97569e-16 -1.59028e-14 -3.53113e-31 -6.36111e-15 -3.18055e-15 19.7815 -3.00948 -8.30515 24 -2.78299e-15 -1.59028e-14 20 -6.75868e-15 -1.90833e-14 -16.2065 -25.0279 -18.0454 -3.51725 39.3014 -113.747 -46.3721 13.2248 -49.2743 91.3886 60.7969 -15.8525 -28.184 10.7294 -19.1592 9.6452e-16 -3.18055e-15 10 -1.44324e-15 -1.47101e-14 10 -1.59028e-15 1.59028e-15 3.18055e-15 -19.9818 0.871897 -2.3964 -24 1.59028e-15 -0 -20 3.18055e-15 -6.36111e-15 -1.59028e-15 1.59028e-15 3.18055e-15 -20 3.57812e-15 -9.54166e-15 -24 1.59028e-15 -6.36111e-15 -20 0 -2.54444e-14 -1.59028e-15 1.59028e-15 3.18055e-15 -19.9748 -1.02565 2.81938 -24 -7.95139e-15 -9.54166e-15 -20 3.18055e-15 3.18055e-15 -1.59028e-15 1.59028e-15 3.18055e-15 -19.7815 -3.00948 8.30515 -24 1.59028e-15 -0 -20 0 -0 
0 0 0 0 0 -0 18.7203 -22.2557 -170.152 36.3493 -26.2122 59.3341 -14.3591 16.2161 14.5481 4.90643 -0.621538 90.181 35.3556 -14.6749 28.2423 5.01986 24.5225 14.5984 -49.9026 18.2457 135.027 -13.1662 8.4109 0.543884 -3.28567 2.11334 -0.357471 -5.35675 3.39403 -0.788564 -1.22538 -2.93009 0.591642 8.62113 -64.8618 109.998 -19.5208 15.5165 36.8419 3.85745 -1.25673 3.13908 67.919 -6.19682 32.5587 16.8039 -78.5784 80.0269 -4.01321 -20.4797 9.14049 28.184 10.7294 19.1592 0 0 -10 1.09556e-14 -1.11319e-14 -10 -3.18055e-15 0 -3.18055e-15 19.9818 0.871897 2.3964 24 1.59028e-15 3.18055e-15 20 7.55382e-15 1.90833e-14 -3.18055e-15 0 -3.18055e-15 20 4.77083e-15 -6.36111e-15 24 3.18055e-15 6.36111e-15 20 1.15295e-14 2.54444e-14 -3.18055e-15 0 -3.18055e-15 19.9748 -1.02565 -2.81938 24 -5.56597e-15 6.36111e-15 20 5.96354e-15 1.90833e-14 -3.18055e-15 0 -3.18055e-15 19.7815 -3.00948 -8.30515 24 -2.38542e-15 1.59028e-14 20 -3.97569e-16 4.13472e-14 -16.2132 -24.9833 -18.0802 -3.50991 39.3006 -113.749 -46.3691 13.235 -49.2739 91.3872 60.7824 -15.7559 -28.184 10.7294 -19.1592 3.93064e-15 -3.97569e-15 10 5.04028e-15 1.03368e-14 10 1.59028e-15 7.95139e-16 -3.18055e-15 -19.9818 0.871897 -2.3964 -24 6.36111e-15 -0 -20 -3.18055e-15 -0 1.59028e-15 7.95139e-16 -3.18055e-15 -20 -3.57812e-15 6.36111e-15 -24 -1.59028e-15 9.54166e-15 -20 0 6.36111e-15 1.59028e-15 7.95139e-16 -3.18055e-15 -19.9748 -1.02565 2.81938 -24 1.59028e-15 -6.36111e-15 -20 0 6.36111e-15 1.59028e-15 7.95139e-16 -3.18055e-15 -19.7815 -3.00948 8.30515 -24 3.18055e-15 -3.18055e-15 -20 3.18055e-15 -3.18055e-15 
0 0 0 0 0 -0 18.6579 -22.2674 -170.125 36.3072 -26.2313 59.3554 -14.3635 16.2663 14.5143 4.92914 -0.633664 90.1736 35.3093 -14.6316 28.0514 4.89424 24.4677 14.8129 -49.8217 18.2006 135.011 -13.1917 8.40944 0.565401 -3.28665 2.11345 -0.35301 -5.36702 3.39393 -0.781654 -1.22593 -2.92901 0.593717 8.35451 -64.832 109.777 -19.565 15.5112 36.8699 3.8743 -1.3126 3.19248 67.9191 -6.26176 32.5129 16.7667 -78.5694 79.951 -4.05034 -20.4094 9.23763 28.184 10.7294 19.1592 0 0 -10 -1.82758e-15 7.95139e-15 -10 -3.18055e-15 -3.18055e-15 4.77083e-15 19.9818 0.871897 2.3964 24 -3.97569e-15 -2.54444e-14 20 -3.57812e-15 -9.54166e-15 -3.18055e-15 -3.18055e-15 4.77083e-15 20 -9.54166e-15 3.18055e-15 24 -1.03368e-14 -6.36111e-15 20 -2.38542e-15 -1.90833e-14 -3.18055e-15 -3.18055e-15 4.77083e-15 19.9748 -1.02565 -2.81938 24 -7.15625e-15 -0 20 -2.38542e-15 -2.22639e-14 -3.18055e-15 -3.18055e-15 4.77083e-15 19.7815 -3.00948 -8.30515 24 -9.14409e-15 -3.18055e-15 20 -4.37326e-15 -1.90833e-14 -16.2572 -24.9372 -18.1707 -3.50736 39.3 -113.752 -46.3686 13.2304 -49.271 91.3302 60.7734 -15.6006 -28.184 10.7294 -19.1592 -5.98544e-15 -3.97569e-16 10 7.33675e-15 -3.97569e-16 10 4.77083e-15 9.54166e-15 -6.36111e-15 -19.9818 0.871897 -2.3964 -24 9.54166e-15 -0 -20 -3.18055e-15 9.54166e-15 4.77083e-15 9.54166e-15 -6.36111e-15 -20 -4.77083e-15 -3.18055e-15 -24 -4.77083e-15 6.36111e-15 -20 1.59028e-14 3.18055e-15 4.77083e-15 9.54166e-15 -6.36111e-15 -19.9748 -1.02565 2.81938 -24 -1.59028e-14 1.27222e-14 -20 6.36111e-15 3.18055e-15 4.77083e-15 9.54166e-15 -6.36111e-15 -19.7815 -3.00948 8.30515 -24 0 1.27222e-14 -20 -6.36111e-15 6.36111e-15 
